FrauncesItalic-BlackOpMinGoofMin.ufo
<glyph name="hyphen" format="2">
  <advance width="418"/>
  <unicode hex="002D"/>
  <outline>
    <contour>
      <point x="420" y="311" type="curve" smooth="yes"/>
      <point x="149" y="311" type="line" smooth="yes"/>
      <point x="115" y="311"/>
      <point x="97" y="299"/>
      <point x="82" y="266" type="curve" smooth="yes"/>
      <point x="68" y="239" type="line" smooth="yes"/>
      <point x="64" y="227"/>
      <point x="61" y="219"/>
      <point x="61" y="212" type="curve" smooth="yes"/>
      <point x="61" y="187"/>
      <point x="83" y="172"/>
      <point x="108" y="172" type="curve" smooth="yes"/>
      <point x="377" y="172" type="line" smooth="yes"/>
      <point x="413" y="172"/>
      <point x="431" y="186"/>
      <point x="447" y="219" type="curve" smooth="yes"/>
      <point x="458" y="243" type="line" smooth="yes"/>
      <point x="465" y="258"/>
      <point x="465" y="266"/>
      <point x="465" y="273" type="curve" smooth="yes"/>
      <point x="465" y="296"/>
      <point x="446" y="311"/>
    </contour>
  </outline>
</glyph>
<glyph name="one" format="2">
  <advance width="470"/>
  <unicode hex="0031"/>
  <outline>
    <contour>
      <point x="186" y="546" type="line" smooth="yes"/>
      <point x="155" y="546"/>
      <point x="144" y="564"/>
      <point x="153" y="588" type="curve" smooth="yes"/>
      <point x="158" y="612"/>
      <point x="182" y="630"/>
      <point x="211" y="630" type="curve" smooth="yes"/>
      <point x="236" y="630" type="line" smooth="yes"/>
      <point x="309" y="630"/>
      <point x="365" y="631"/>
      <point x="416" y="663" type="curve" smooth="yes"/>
      <point x="437" y="676"/>
      <point x="451" y="681"/>
      <point x="473" y="681" type="curve" smooth="yes"/>
      <point x="501" y="681"/>
      <point x="513" y="667"/>
      <point x="504" y="632" type="curve" smooth="yes"/>
      <point x="381" y="175" type="line" smooth="yes"/>
      <point x="369" y="127"/>
      <point x="380" y="93"/>
      <point x="404" y="87" type="curve" smooth="yes"/>
      <point x="407" y="81" type="line" smooth="yes"/>
      <point x="432" y="76"/>
      <point x="449" y="66"/>
      <point x="443" y="42" type="curve" smooth="yes"/>
      <point x="434" y="13"/>
      <point x="416" y="0"/>
      <point x="386" y="0" type="curve" smooth="yes"/>
      <point x="64" y="0" type="line" smooth="yes"/>
      <point x="35" y="0"/>
      <point x="22" y="13"/>
      <point x="29" y="43" type="curve" smooth="yes"/>
      <point x="35" y="68"/>
      <point x="57" y="77"/>
      <point x="88" y="84" type="curve" smooth="yes"/>
      <point x="88" y="90" type="line" smooth="yes"/>
      <point x="124" y="98"/>
      <point x="156" y="126"/>
      <point x="168" y="175" type="curve" smooth="yes"/>
      <point x="242" y="447" type="line" smooth="yes"/>
      <point x="260" y="517"/>
      <point x="241" y="546"/>
      <point x="196" y="546" type="curve" smooth="yes"/>
    </contour>
  </outline>
</glyph>
<glyph name="six" format="2">
  <advance width="671"/>
  <unicode hex="0036"/>
  <outline>
    <contour>
      <point x="491" y="670" type="curve" smooth="yes"/>
      <point x="260" y="670"/>
      <point x="94" y="487"/>
      <point x="94" y="224" type="curve" smooth="yes"/>
      <point x="94" y="79"/>
      <point x="169" y="-14"/>
      <point x="352" y="-14" type="curve" smooth="yes"/>
      <point x="557" y="-14"/>
      <point x="682" y="107"/>
      <point x="682" y="251" type="curve" smooth="yes"/>
      <point x="682" y="350"/>
      <point x="606" y="421"/>
      <point x="483" y="421" type="curve" smooth="yes"/>
      <point x="354" y="421"/>
      <point x="255" y="338"/>
      <point x="229" y="236" type="curve"/>
      <point x="289" y="224" type="line"/>
      <point x="300" y="274"/>
      <point x="347" y="309"/>
      <point x="388" y="309" type="curve" smooth="yes"/>
      <point x="444" y="309"/>
      <point x="478" y="283"/>
      <point x="478" y="230" type="curve" smooth="yes"/>
      <point x="478" y="129"/>
      <point x="440" y="78"/>
      <point x="374" y="78" type="curve" smooth="yes"/>
      <point x="327" y="78"/>
      <point x="295" y="107"/>
      <point x="295" y="140" type="curve" smooth="yes"/>
      <point x="295" y="422"/>
      <point x="392" y="570"/>
      <point x="486" y="570" type="curve" smooth="yes"/>
      <point x="514" y="570"/>
      <point x="538" y="549"/>
      <point x="536" y="520" type="curve" smooth="yes"/>
      <point x="535" y="507"/>
      <point x="536" y="500"/>
      <point x="536" y="487" type="curve" smooth="yes"/>
      <point x="535" y="420"/>
      <point x="580" y="378"/>
      <point x="648" y="378" type="curve" smooth="yes"/>
      <point x="709" y="378"/>
      <point x="756" y="436"/>
      <point x="756" y="502" type="curve" smooth="yes"/>
      <point x="756" y="597"/>
      <point x="680" y="670"/>
    </contour>
  </outline>
</glyph>
<glyph name="eight" format="2">
  <advance width="604"/>
  <unicode hex="0038"/>
  <outline>
    <contour>
      <point x="283" y="-14" type="curve" smooth="yes"/>
      <point x="486" y="-14"/>
      <point x="622" y="87"/>
      <point x="622" y="173" type="curve" smooth="yes"/>
      <point x="622" y="267"/>
      <point x="578" y="324"/>
      <point x="469" y="373" type="curve" smooth="yes"/>
      <point x="392" y="410"/>
      <point x="363" y="437"/>
      <point x="363" y="478" type="curve" smooth="yes"/>
      <point x="363" y="530"/>
      <point x="400" y="574"/>
      <point x="442" y="574" type="curve" smooth="yes"/>
      <point x="496" y="574"/>
      <point x="526" y="540"/>
      <point x="526" y="485" type="curve" smooth="yes"/>
      <point x="526" y="436"/>
      <point x="460" y="380"/>
      <point x="396" y="359" type="curve"/>
      <point x="439" y="322" type="line"/>
      <point x="623" y="329"/>
      <point x="719" y="403"/>
      <point x="719" y="497" type="curve" smooth="yes"/>
      <point x="719" y="594"/>
      <point x="636" y="669"/>
      <point x="476" y="669" type="curve" smooth="yes"/>
      <point x="292" y="669"/>
      <point x="140" y="547"/>
      <point x="140" y="455" type="curve" smooth="yes"/>
      <point x="140" y="353"/>
      <point x="179" y="296"/>
      <point x="287" y="245" type="curve" smooth="yes"/>
      <point x="371" y="204"/>
      <point x="399" y="183"/>
      <point x="399" y="139" type="curve" smooth="yes"/>
      <point x="399" y="108"/>
      <point x="368" y="74"/>
      <point x="312" y="74" type="curve" smooth="yes"/>
      <point x="246" y="74"/>
      <point x="211" y="104"/>
      <point x="209" y="154" type="curve" smooth="yes"/>
      <point x="209" y="217"/>
      <point x="249" y="249"/>
      <point x="321" y="288" type="curve"/>
      <point x="262" y="296" type="line"/>
      <point x="124" y="314"/>
      <point x="35" y="226"/>
      <point x="36" y="136" type="curve" smooth="yes"/>
      <point x="37" y="45"/>
      <point x="118" y="-14"/>
    </contour>
  </outline>
</glyph>
<glyph name="C" format="2">
  <advance width="649"/>
  <unicode hex="0043"/>
  <outline>
    <contour>
      <point x="702" y="192" type="curve" smooth="yes"/>
      <point x="702" y="224"/>
      <point x="686" y="239"/>
      <point x="661" y="239" type="curve" smooth="yes"/>
      <point x="631" y="239"/>
      <point x="605" y="225"/>
      <point x="571" y="175" type="curve" smooth="yes"/>
      <point x="545" y="138"/>
      <point x="513" y="123"/>
      <point x="481" y="123" type="curve" smooth="yes"/>
      <point x="409" y="123"/>
      <point x="357" y="192"/>
      <point x="357" y="305" type="curve" smooth="yes"/>
      <point x="357" y="469"/>
      <point x="446" y="621"/>
      <point x="541" y="621" type="curve" smooth="yes"/>
      <point x="600" y="621"/>
      <point x="634" y="599"/>
      <point x="655" y="522" type="curve" smooth="yes"/>
      <point x="654" y="503" type="line" smooth="yes"/>
      <point x="670" y="455"/>
      <point x="697" y="431"/>
      <point x="736" y="431" type="curve" smooth="yes"/>
      <point x="765" y="431"/>
      <point x="789" y="456"/>
      <point x="786" y="516" type="curve" smooth="yes"/>
      <point x="777" y="644" type="line" smooth="yes"/>
      <point x="775" y="691"/>
      <point x="763" y="719"/>
      <point x="739" y="719" type="curve" smooth="yes"/>
      <point x="714" y="719"/>
      <point x="694" y="693"/>
      <point x="667" y="693" type="curve" smooth="yes"/>
      <point x="645" y="693"/>
      <point x="609" y="715"/>
      <point x="548" y="715" type="curve" smooth="yes"/>
      <point x="269" y="715"/>
      <point x="96" y="505"/>
      <point x="96" y="252" type="curve" smooth="yes"/>
      <point x="96" y="92"/>
      <point x="210" y="-14"/>
      <point x="387" y="-14" type="curve" smooth="yes"/>
      <point x="526" y="-14"/>
      <point x="639" y="40"/>
      <point x="681" y="130" type="curve" smooth="yes"/>
      <point x="695" y="159"/>
      <point x="702" y="172"/>
    </contour>
  </outline>
</glyph>
<glyph name="D" format="2">
  <advance width="765"/>
  <unicode hex="0044"/>
  <outline>
    <contour>
      <point x="443" y="103" type="curve" smooth="yes"/>
      <point x="478" y="103" type="line" smooth="yes"/>
      <point x="427" y="103"/>
      <point x="378" y="144"/>
      <point x="378" y="198" type="curve" smooth="yes"/>
      <point x="378" y="228"/>
      <point x="381" y="262"/>
      <point x="385" y="278" type="curve" smooth="yes"/>
      <point x="388" y="281"/>
      <point x="438" y="476"/>
      <point x="447" y="497" type="curve" smooth="yes"/>
      <point x="476" y="578"/>
      <point x="502" y="597"/>
      <point x="532" y="597" type="curve" smooth="yes"/>
      <point x="532" y="597" type="line" smooth="yes"/>
      <point x="584" y="597"/>
      <point x="615" y="532"/>
      <point x="615" y="429" type="curve" smooth="yes"/>
      <point x="615" y="157"/>
      <point x="543" y="103"/>
    </contour>
    <contour>
      <point x="36" y="43" type="curve" smooth="yes"/>
      <point x="39" y="14"/>
      <point x="52" y="0"/>
      <point x="71" y="0" type="curve" smooth="yes"/>
      <point x="453" y="0" type="line" smooth="yes"/>
      <point x="674" y="0"/>
      <point x="843" y="175"/>
      <point x="843" y="386" type="curve" smooth="yes"/>
      <point x="843" y="568"/>
      <point x="728" y="700"/>
      <point x="565" y="700" type="curve" smooth="yes"/>
      <point x="205" y="700" type="line" smooth="yes"/>
      <point x="181" y="700"/>
      <point x="163" y="669"/>
      <point x="166" y="644" type="curve" smooth="yes"/>
      <point x="170" y="620"/>
      <point x="183" y="608"/>
      <point x="192" y="603" type="curve" smooth="yes"/>
      <point x="219" y="597" type="line" smooth="yes"/>
      <point x="229" y="594"/>
      <point x="236" y="589"/>
      <point x="242" y="572" type="curve" smooth="yes"/>
      <point x="269" y="587"/>
      <point x="187" y="316"/>
      <point x="152" y="198" type="curve" smooth="yes"/>
      <point x="127" y="121"/>
      <point x="118" y="110"/>
      <point x="95" y="103" type="curve" smooth="yes"/>
      <point x="65" y="97" type="line" smooth="yes"/>
      <point x="44" y="92"/>
      <point x="31" y="61"/>
    </contour>
  </outline>
</glyph>
<glyph name="E" format="2">
  <advance width="672"/>
  <unicode hex="0045"/>
  <anchor x="389" y="734" name="center"/>
  <outline>
    <contour>
      <point x="274" y="404" type="line"/>
      <point x="254" y="320" type="line"/>
      <point x="443" y="320" type="line" smooth="yes"/>
      <point x="480" y="320"/>
      <point x="489" y="307"/>
      <point x="515" y="278" type="curve" smooth="yes"/>
      <point x="530" y="262"/>
      <point x="549" y="252"/>
      <point x="571" y="252" type="curve" smooth="yes"/>
      <point x="593" y="252"/>
      <point x="608" y="268"/>
      <point x="605" y="304" type="curve" smooth="yes"/>
      <point x="592" y="419" type="line" smooth="yes"/>
      <point x="588" y="454"/>
      <point x="569" y="475"/>
      <point x="545" y="475" type="curve" smooth="yes"/>
      <point x="528" y="475"/>
      <point x="517" y="466"/>
      <point x="500" y="450" type="curve" smooth="yes"/>
      <point x="474" y="415"/>
      <point x="447" y="404"/>
      <point x="412" y="404" type="curve" smooth="yes"/>
    </contour>
    <contour>
      <point x="427" y="0" type="line" smooth="yes"/>
      <point x="457" y="0"/>
      <point x="488" y="-19"/>
      <point x="518" y="-19" type="curve" smooth="yes"/>
      <point x="587" y="-19"/>
      <point x="649" y="62"/>
      <point x="649" y="158" type="curve" smooth="yes"/>
      <point x="649" y="204"/>
      <point x="633" y="227"/>
      <point x="611" y="227" type="curve" smooth="yes"/>
      <point x="586" y="227"/>
      <point x="569" y="213"/>
      <point x="548" y="180" type="curve" smooth="yes"/>
      <point x="504" y="112"/>
      <point x="447" y="80"/>
      <point x="389" y="80" type="curve" smooth="yes"/>
      <point x="363" y="80" type="line" smooth="yes"/>
      <point x="331" y="80"/>
      <point x="314" y="101"/>
      <point x="317" y="133" type="curve" smooth="yes"/>
      <point x="324" y="194"/>
      <point x="406" y="526"/>
      <point x="440" y="619" type="curve"/>
      <point x="497" y="619" type="line" smooth="yes"/>
      <point x="541" y="619"/>
      <point x="576" y="601"/>
      <point x="606" y="531" type="curve" smooth="yes"/>
      <point x="621" y="496"/>
      <point x="643" y="473"/>
      <point x="678" y="473" type="curve" smooth="yes"/>
      <point x="710" y="473"/>
      <point x="730" y="501"/>
      <point x="723" y="549" type="curve" smooth="yes"/>
      <point x="707" y="676" type="line" smooth="yes"/>
      <point x="702" y="711"/>
      <point x="682" y="727"/>
      <point x="654" y="727" type="curve" smooth="yes"/>
      <point x="624" y="727"/>
      <point x="597" y="700"/>
      <point x="549" y="700" type="curve" smooth="yes"/>
      <point x="168" y="700" type="line" smooth="yes"/>
      <point x="142" y="700"/>
      <point x="124" y="680"/>
      <point x="124" y="653" type="curve" smooth="yes"/>
      <point x="124" y="624"/>
      <point x="140" y="608"/>
      <point x="157" y="603" type="curve" smooth="yes"/>
      <point x="168" y="600" type="line" smooth="yes"/>
      <point x="184" y="594"/>
      <point x="193" y="581"/>
      <point x="193" y="555" type="curve" smooth="yes"/>
      <point x="193" y="521"/>
      <point x="102" y="186"/>
      <point x="88" y="150" type="curve" smooth="yes"/>
      <point x="76" y="118"/>
      <point x="64" y="106"/>
      <point x="43" y="97" type="curve" smooth="yes"/>
      <point x="27" y="93" type="line" smooth="yes"/>
      <point x="0" y="82"/>
      <point x="-13" y="69"/>
      <point x="-13" y="44" type="curve" smooth="yes"/>
      <point x="-13" y="16"/>
      <point x="5" y="0"/>
      <point x="35" y="0" type="curve" smooth="yes"/>
    </contour>
  </outline>
</glyph>
<glyph name="I" format="2">
  <advance width="449"/>
  <unicode hex="0049"/>
  <outline>
    <contour>
      <point x="313" y="127" type="curve" smooth="yes"/>
      <point x="318" y="152"/>
      <point x="375" y="419"/>
      <point x="427" y="562" type="curve" smooth="yes"/>
      <point x="436" y="588"/>
      <point x="446" y="599"/>
      <point x="458" y="602" type="curve" smooth="yes"/>
      <point x="481" y="607" type="line" smooth="yes"/>
      <point x="506" y="613"/>
      <point x="522" y="631"/>
      <point x="522" y="657" type="curve" smooth="yes"/>
      <point x="522" y="682"/>
      <point x="503" y="700"/>
      <point x="471" y="700" type="curve" smooth="yes"/>
      <point x="170" y="700" type="line" smooth="yes"/>
      <point x="143" y="700"/>
      <point x="126" y="677"/>
      <point x="126" y="649" type="curve" smooth="yes"/>
      <point x="126" y="625"/>
      <point x="140" y="612"/>
      <point x="164" y="606" type="curve" smooth="yes"/>
      <point x="178" y="603" type="line" smooth="yes"/>
      <point x="194" y="600"/>
      <point x="200" y="589"/>
      <point x="198" y="573" type="curve" smooth="yes"/>
      <point x="195" y="549"/>
      <point x="125" y="268"/>
      <point x="87" y="140" type="curve" smooth="yes"/>
      <point x="79" y="115"/>
      <point x="68" y="105"/>
      <point x="48" y="100" type="curve" smooth="yes"/>
      <point x="28" y="95" type="line" smooth="yes"/>
      <point x="6" y="90"/>
      <point x="-10" y="70"/>
      <point x="-10" y="44" type="curve" smooth="yes"/>
      <point x="-10" y="19"/>
      <point x="7" y="0"/>
      <point x="35" y="0" type="curve" smooth="yes"/>
      <point x="330" y="0" type="line" smooth="yes"/>
      <point x="369" y="0"/>
      <point x="389" y="20"/>
      <point x="389" y="50" type="curve" smooth="yes"/>
      <point x="389" y="73"/>
      <point x="375" y="88"/>
      <point x="357" y="95" type="curve" smooth="yes"/>
      <point x="332" y="105" type="line" smooth="yes"/>
      <point x="321" y="109"/>
      <point x="311" y="116"/>
    </contour>
  </outline>
</glyph>
<glyph name="K" format="2">
  <advance width="797"/>
  <unicode hex="004B"/>
  <outline>
    <contour>
      <point x="437" y="344" type="line"/>
      <point x="484" y="183" type="line" smooth="yes"/>
      <point x="540" y="27"/>
      <point x="585" y="-14"/>
      <point x="679" y="-14" type="curve" smooth="yes"/>
      <point x="764" y="-14"/>
      <point x="852" y="63"/>
      <point x="852" y="151" type="curve" smooth="yes"/>
      <point x="852" y="174"/>
      <point x="838" y="195"/>
      <point x="815" y="195" type="curve" smooth="yes"/>
      <point x="787" y="195"/>
      <point x="767" y="180"/>
      <point x="732" y="180" type="curve" smooth="yes"/>
      <point x="707" y="180"/>
      <point x="679" y="196"/>
      <point x="656" y="263" type="curve" smooth="yes"/>
      <point x="587" y="458" type="line"/>
    </contour>
    <contour>
      <point x="316" y="109" type="line"/>
      <point x="582" y="389" type="line" smooth="yes"/>
      <point x="660" y="471"/>
      <point x="697" y="497"/>
      <point x="746" y="497" type="curve" smooth="yes"/>
      <point x="783" y="497"/>
      <point x="805" y="474"/>
      <point x="854" y="474" type="curve" smooth="yes"/>
      <point x="913" y="474"/>
      <point x="971" y="523"/>
      <point x="971" y="592" type="curve" smooth="yes"/>
      <point x="971" y="654"/>
      <point x="931" y="714"/>
      <point x="872" y="714" type="curve" smooth="yes"/>
      <point x="802" y="714"/>
      <point x="734" y="683"/>
      <point x="632" y="575" type="curve" smooth="yes"/>
      <point x="289" y="208" type="line"/>
    </contour>
    <component base="I"/>
  </outline>
</glyph>
<glyph name="Q" format="2">
  <advance width="797"/>
  <unicode hex="0051"/>
  <outline>
    <contour>
      <point x="410" y="88" type="curve" smooth="yes"/>
      <point x="410" y="-77"/>
      <point x="522" y="-221"/>
      <point x="655" y="-221" type="curve" smooth="yes"/>
      <point x="707" y="-221"/>
      <point x="748" y="-213"/>
      <point x="782" y="-154" type="curve" smooth="yes"/>
      <point x="816" y="-96"/>
      <point x="828" y="-73"/>
      <point x="828" y="-50" type="curve" smooth="yes"/>
      <point x="828" y="-33"/>
      <point x="817" y="-17"/>
      <point x="794" y="-17" type="curve" smooth="yes"/>
      <point x="772" y="-17"/>
      <point x="750" y="-54"/>
      <point x="715" y="-54" type="curve" smooth="yes"/>
      <point x="587" y="-54"/>
      <point x="494" y="32"/>
      <point x="494" y="129" type="curve" smooth="yes"/>
      <point x="494" y="187"/>
      <point x="515" y="224"/>
      <point x="515" y="250" type="curve" smooth="yes"/>
      <point x="515" y="268"/>
      <point x="508" y="280"/>
      <point x="485" y="280" type="curve" smooth="yes"/>
      <point x="446" y="280"/>
      <point x="410" y="220"/>
    </contour>
    <component base="O"/>
  </outline>
</glyph>
<glyph name="V" format="2">
  <advance width="715"/>
  <unicode hex="0056"/>
  <outline>
    <contour>
      <point x="554" y="651" type="curve" smooth="yes"/>
      <point x="554" y="632"/>
      <point x="564" y="614"/>
      <point x="582" y="605" type="curve" smooth="yes"/>
      <point x="601" y="596" type="line" smooth="yes"/>
      <point x="623" y="584"/>
      <point x="626" y="549"/>
      <point x="594" y="500" type="curve" smooth="yes"/>
      <point x="310" y="65" type="line"/>
      <point x="382" y="84" type="line"/>
      <point x="372" y="245"/>
      <point x="363" y="448"/>
      <point x="360" y="517" type="curve" smooth="yes"/>
      <point x="358" y="573"/>
      <point x="373" y="590"/>
      <point x="399" y="598" type="curve" smooth="yes"/>
      <point x="415" y="603" type="line" smooth="yes"/>
      <point x="441" y="612"/>
      <point x="457" y="627"/>
      <point x="457" y="657" type="curve" smooth="yes"/>
      <point x="457" y="685"/>
      <point x="439" y="700"/>
      <point x="412" y="700" type="curve" smooth="yes"/>
      <point x="145" y="700" type="line" smooth="yes"/>
      <point x="116" y="700"/>
      <point x="90" y="678"/>
      <point x="90" y="651" type="curve" smooth="yes"/>
      <point x="90" y="625"/>
      <point x="100" y="607"/>
      <point x="116" y="598" type="curve" smooth="yes"/>
      <point x="122" y="595" type="line" smooth="yes"/>
      <point x="136" y="587"/>
      <point x="142" y="570"/>
      <point x="144" y="540" type="curve" smooth="yes"/>
      <point x="152" y="413"/>
      <point x="166" y="216"/>
      <point x="168" y="171" type="curve" smooth="yes"/>
      <point x="169" y="151"/>
      <point x="172" y="115"/>
      <point x="167" y="94" type="curve" smooth="yes"/>
      <point x="161" y="65" type="line" smooth="yes"/>
      <point x="153" y="28"/>
      <point x="180" y="0"/>
      <point x="206" y="0" type="curve" smooth="yes"/>
      <point x="375" y="0" type="line" smooth="yes"/>
      <point x="412" y="0"/>
      <point x="429" y="25"/>
      <point x="434" y="53" type="curve" smooth="yes"/>
      <point x="438" y="72" type="line" smooth="yes"/>
      <point x="443" y="92"/>
      <point x="449" y="108"/>
      <point x="463" y="127" type="curve" smooth="yes"/>
      <point x="698" y="478" type="line" smooth="yes"/>
      <point x="743" y="544"/>
      <point x="760" y="564"/>
      <point x="792" y="580" type="curve" smooth="yes"/>
      <point x="807" y="587" type="line" smooth="yes"/>
      <point x="830" y="598"/>
      <point x="837" y="620"/>
      <point x="837" y="647" type="curve" smooth="yes"/>
      <point x="837" y="681"/>
      <point x="818" y="700"/>
      <point x="783" y="700" type="curve" smooth="yes"/>
      <point x="598" y="700" type="line" smooth="yes"/>
      <point x="572" y="700"/>
      <point x="554" y="680"/>
    </contour>
  </outline>
</glyph>
<glyph name="X" format="2">
  <advance width="707"/>
  <unicode hex="0058"/>
  <outline>
    <contour>
      <point x="327" y="400" type="line"/>
      <point x="218" y="258" type="line" smooth="yes"/>
      <point x="140" y="156"/>
      <point x="106" y="140"/>
      <point x="65" y="130" type="curve" smooth="yes"/>
      <point x="9" y="118"/>
      <point x="-7" y="95"/>
      <point x="-7" y="64" type="curve" smooth="yes"/>
      <point x="-7" y="24"/>
      <point x="12" y="0"/>
      <point x="53" y="0" type="curve" smooth="yes"/>
      <point x="228" y="0" type="line" smooth="yes"/>
      <point x="254" y="0"/>
      <point x="275" y="21"/>
      <point x="275" y="51" type="curve" smooth="yes"/>
      <point x="275" y="66"/>
      <point x="276" y="82"/>
      <point x="255" y="97" type="curve" smooth="yes"/>
      <point x="237" y="106"/>
      <point x="234" y="122"/>
      <point x="234" y="134" type="curve" smooth="yes"/>
      <point x="234" y="155"/>
      <point x="255" y="168"/>
      <point x="315" y="248" type="curve" smooth="yes"/>
      <point x="377" y="330" type="line"/>
    </contour>
    <contour>
      <point x="470" y="554" type="curve" smooth="yes"/>
      <point x="462" y="576"/>
      <point x="475" y="593"/>
      <point x="490" y="597" type="curve" smooth="yes"/>
      <point x="512" y="603" type="line" smooth="yes"/>
      <point x="540" y="610"/>
      <point x="555" y="627"/>
      <point x="555" y="655" type="curve" smooth="yes"/>
      <point x="555" y="684"/>
      <point x="540" y="700"/>
      <point x="514" y="700" type="curve" smooth="yes"/>
      <point x="205" y="700" type="line" smooth="yes"/>
      <point x="174" y="700"/>
      <point x="154" y="682"/>
      <point x="154" y="655" type="curve" smooth="yes"/>
      <point x="154" y="633"/>
      <point x="162" y="615"/>
      <point x="199" y="600" type="curve" smooth="yes"/>
      <point x="220" y="591"/>
      <point x="228" y="586"/>
      <point x="241" y="557" type="curve" smooth="yes"/>
      <point x="309" y="397"/>
      <point x="378" y="235"/>
      <point x="410" y="149" type="curve" smooth="yes"/>
      <point x="414" y="136"/>
      <point x="415" y="130"/>
      <point x="415" y="125" type="curve" smooth="yes"/>
      <point x="415" y="112"/>
      <point x="403" y="103"/>
      <point x="380" y="100" type="curve" smooth="yes"/>
      <point x="346" y="95"/>
      <point x="331" y="77"/>
      <point x="331" y="52" type="curve" smooth="yes"/>
      <point x="331" y="23"/>
      <point x="344" y="0"/>
      <point x="373" y="0" type="curve" smooth="yes"/>
      <point x="674" y="0" type="line" smooth="yes"/>
      <point x="704" y="0"/>
      <point x="723" y="20"/>
      <point x="723" y="48" type="curve" smooth="yes"/>
      <point x="723" y="76"/>
      <point x="716" y="89"/>
      <point x="682" y="101" type="curve" smooth="yes"/>
      <point x="663" y="107"/>
      <point x="650" y="117"/>
      <point x="639" y="141" type="curve" smooth="yes"/>
      <point x="572" y="295"/>
      <point x="498" y="468"/>
    </contour>
    <contour>
      <point x="549" y="307" type="line"/>
      <point x="628" y="434" type="line" smooth="yes"/>
      <point x="634" y="464"/>
      <point x="688" y="508"/>
      <point x="704" y="508" type="curve" smooth="yes"/>
      <point x="739" y="508"/>
      <point x="762" y="482"/>
      <point x="808" y="482" type="curve" smooth="yes"/>
      <point x="855" y="482"/>
      <point x="904" y="522"/>
      <point x="904" y="584" type="curve" smooth="yes"/>
      <point x="904" y="657"/>
      <point x="864" y="714"/>
      <point x="783" y="714" type="curve" smooth="yes"/>
      <point x="721" y="714"/>
      <point x="674" y="685"/>
      <point x="548" y="470" type="curve" smooth="yes"/>
      <point x="496" y="389" type="line"/>
    </contour>
  </outline>
</glyph>
<glyph name="Y" format="2">
  <advance width="691"/>
  <unicode hex="0059"/>
  <anchor x="493" y="748" name="center"/>
  <outline>
    <contour>
      <point x="479" y="323" type="curve"/>
      <point x="495" y="306" type="line"/>
      <point x="494" y="302"/>
      <point x="492" y="303"/>
      <point x="492" y="303" type="curve" smooth="yes"/>
      <point x="492" y="427"/>
      <point x="454" y="610"/>
      <point x="412" y="671" type="curve" smooth="yes"/>
      <point x="388" y="699"/>
      <point x="349" y="720"/>
      <point x="276" y="720" type="curve" smooth="yes"/>
      <point x="188" y="720"/>
      <point x="161" y="707"/>
      <point x="161" y="678" type="curve" smooth="yes"/>
      <point x="161" y="652"/>
      <point x="177" y="634"/>
      <point x="206" y="620" type="curve" smooth="yes"/>
      <point x="284" y="584"/>
      <point x="308" y="443"/>
      <point x="309" y="284" type="curve" smooth="yes"/>
      <point x="309" y="244"/>
      <point x="301" y="213"/>
      <point x="295" y="188" type="curve" smooth="yes"/>
      <point x="291" y="163" type="line" smooth="yes"/>
      <point x="283" y="129"/>
      <point x="261" y="107"/>
      <point x="229" y="101" type="curve" smooth="yes"/>
      <point x="209" y="99" type="line" smooth="yes"/>
      <point x="182" y="93"/>
      <point x="161" y="74"/>
      <point x="165" y="47" type="curve" smooth="yes"/>
      <point x="168" y="16"/>
      <point x="179" y="0"/>
      <point x="207" y="0" type="curve" smooth="yes"/>
      <point x="557" y="0" type="line" smooth="yes"/>
      <point x="587" y="0"/>
      <point x="610" y="14"/>
      <point x="607" y="47" type="curve" smooth="yes"/>
      <point x="603" y="72"/>
      <point x="599" y="70"/>
      <point x="570" y="85" type="curve" smooth="yes"/>
      <point x="555" y="95" type="line" smooth="yes"/>
      <point x="531" y="110"/>
      <point x="525" y="160"/>
      <point x="529" y="190" type="curve" smooth="yes"/>
      <point x="528" y="211" type="line" smooth="yes"/>
      <point x="535" y="264"/>
      <point x="543" y="348"/>
      <point x="603" y="443" type="curve" smooth="yes"/>
      <point x="615" y="418"/>
      <point x="668" y="523"/>
      <point x="675" y="523" type="curve" smooth="yes"/>
      <point x="702" y="523"/>
      <point x="724" y="503"/>
      <point x="758" y="503" type="curve" smooth="yes"/>
      <point x="821" y="503"/>
      <point x="875" y="540"/>
      <point x="875" y="591" type="curve" smooth="yes"/>
      <point x="875" y="652"/>
      <point x="842" y="714"/>
      <point x="767" y="714" type="curve" smooth="yes"/>
      <point x="680" y="714"/>
      <point x="542" y="568"/>
    </contour>
  </outline>
</glyph>
<glyph name="Z" format="2">
  <advance width="672"/>
  <unicode hex="005A"/>
  <outline>
    <contour>
      <point x="438" y="0" type="line" smooth="yes"/>
      <point x="485" y="0"/>
      <point x="513" y="-15"/>
      <point x="546" y="-15" type="curve" smooth="yes"/>
      <point x="645" y="-15"/>
      <point x="735" y="94"/>
      <point x="735" y="214" type="curve" smooth="yes"/>
      <point x="735" y="286"/>
      <point x="719" y="318"/>
      <point x="688" y="318" type="curve" smooth="yes"/>
      <point x="658" y="318"/>
      <point x="638" y="307"/>
      <point x="613" y="279" type="curve" smooth="yes"/>
      <point x="564" y="217" type="line" smooth="yes"/>
      <point x="498" y="132"/>
      <point x="447" y="96"/>
      <point x="341" y="96" type="curve" smooth="yes"/>
      <point x="254" y="96" type="line"/>
      <point x="283" y="21" type="line"/>
      <point x="447" y="230"/>
      <point x="640" y="460"/>
      <point x="750" y="566" type="curve" smooth="yes"/>
      <point x="770" y="584"/>
      <point x="790" y="622"/>
      <point x="790" y="644" type="curve" smooth="yes"/>
      <point x="790" y="685"/>
      <point x="771" y="702"/>
      <point x="725" y="702" type="curve" smooth="yes"/>
      <point x="369" y="702" type="line" smooth="yes"/>
      <point x="330" y="702"/>
      <point x="313" y="724"/>
      <point x="286" y="724" type="curve" smooth="yes"/>
      <point x="247" y="724"/>
      <point x="219" y="710"/>
      <point x="206" y="658" type="curve" smooth="yes"/>
      <point x="179" y="520" type="line" smooth="yes"/>
      <point x="175" y="501"/>
      <point x="170" y="490"/>
      <point x="170" y="479" type="curve" smooth="yes"/>
      <point x="170" y="457"/>
      <point x="189" y="441"/>
      <point x="223" y="441" type="curve" smooth="yes"/>
      <point x="246" y="441"/>
      <point x="254" y="455"/>
      <point x="303" y="506" type="curve" smooth="yes"/>
      <point x="343" y="548" type="line" smooth="yes"/>
      <point x="394" y="601"/>
      <point x="416" y="606"/>
      <point x="476" y="606" type="curve" smooth="yes"/>
      <point x="608" y="606" type="line"/>
      <point x="589" y="681" type="line"/>
      <point x="426" y="474"/>
      <point x="226" y="252"/>
      <point x="172" y="198" type="curve" smooth="yes"/>
      <point x="124" y="150"/>
      <point x="77" y="92"/>
      <point x="77" y="59" type="curve" smooth="yes"/>
      <point x="77" y="18"/>
      <point x="97" y="0"/>
      <point x="143" y="0" type="curve" smooth="yes"/>
    </contour>
  </outline>
</glyph>
<glyph name="a" format="2">
  <advance width="618"/>
  <unicode hex="0061"/>
  <anchor x="359" y="506" name="center"/>
  <outline>
    <contour>
      <point x="509" y="166" type="curve" smooth="yes"/>
      <point x="509" y="192"/>
      <point x="530" y="267"/>
      <point x="547" y="319" type="curve" smooth="yes"/>
      <point x="558" y="354"/>
      <point x="599" y="356"/>
      <point x="599" y="399" type="curve" smooth="yes"/>
      <point x="599" y="451"/>
      <point x="554" y="481"/>
      <point x="424" y="481" type="curve" smooth="yes"/>
      <point x="168" y="481"/>
      <point x="12" y="314"/>
      <point x="12" y="138" type="curve" smooth="yes"/>
      <point x="12" y="31"/>
      <point x="65" y="-14"/>
      <point x="139" y="-14" type="curve" smooth="yes"/>
      <point x="238" y="-14"/>
      <point x="301" y="34"/>
      <point x="356" y="135" type="curve"/>
      <point x="340" y="188" type="line"/>
      <point x="332" y="149"/>
      <point x="319" y="116"/>
      <point x="319" y="78" type="curve" smooth="yes"/>
      <point x="319" y="21"/>
      <point x="351" y="-13"/>
      <point x="400" y="-13" type="curve" smooth="yes"/>
      <point x="493" y="-13"/>
      <point x="562" y="30"/>
      <point x="590" y="103" type="curve" smooth="yes"/>
      <point x="602" y="137"/>
      <point x="599" y="156"/>
      <point x="587" y="162" type="curve" smooth="yes"/>
      <point x="576" y="168"/>
      <point x="565" y="167"/>
      <point x="556" y="160" type="curve" smooth="yes"/>
      <point x="544" y="149"/>
      <point x="538" y="145"/>
      <point x="525" y="145" type="curve" smooth="yes"/>
      <point x="513" y="145"/>
      <point x="509" y="153"/>
    </contour>
    <contour>
      <point x="220" y="155" type="curve" smooth="yes"/>
      <point x="220" y="247"/>
      <point x="289" y="373"/>
      <point x="337" y="373" type="curve" smooth="yes"/>
      <point x="352" y="373"/>
      <point x="361" y="366"/>
      <point x="361" y="335" type="curve" smooth="yes"/>
      <point x="361" y="243"/>
      <point x="289" y="113"/>
      <point x="246" y="113" type="curve" smooth="yes"/>
      <point x="229" y="113"/>
      <point x="220" y="131"/>
    </contour>
  </outline>
</glyph>
<glyph name="f" format="2">
  <advance width="386"/>
  <unicode hex="0066"/>
  <outline>
    <contour>
      <point x="219" y="328" type="line"/>
      <point x="331" y="328" type="line" smooth="yes"/>
      <point x="381" y="328"/>
      <point x="416" y="361"/>
      <point x="416" y="406" type="curve" smooth="yes"/>
      <point x="416" y="429"/>
      <point x="397" y="440"/>
      <point x="364" y="440" type="curve" smooth="yes"/>
      <point x="261" y="440" type="line"/>
    </contour>
    <contour>
      <point x="43" y="394" type="curve" smooth="yes"/>
      <point x="43" y="377"/>
      <point x="54" y="361"/>
      <point x="72" y="348" type="curve" smooth="yes"/>
      <point x="99" y="331"/>
      <point x="107" y="305"/>
      <point x="94" y="257" type="curve" smooth="yes"/>
      <point x="14" y="-36" type="line" smooth="yes"/>
      <point x="3" y="-76"/>
      <point x="-7" y="-106"/>
      <point x="-7" y="-139" type="curve" smooth="yes"/>
      <point x="-7" y="-186"/>
      <point x="21" y="-212"/>
      <point x="69" y="-212" type="curve" smooth="yes"/>
      <point x="166" y="-212"/>
      <point x="269" y="-163"/>
      <point x="269" y="-98" type="curve" smooth="yes"/>
      <point x="269" y="-56"/>
      <point x="221" y="-48"/>
      <point x="221" y="-10" type="curve" smooth="yes"/>
      <point x="221" y="1"/>
      <point x="223" y="17"/>
      <point x="227" y="39" type="curve" smooth="yes"/>
      <point x="306" y="364" type="line" smooth="yes"/>
      <point x="329" y="458"/>
      <point x="257" y="510"/>
      <point x="257" y="560" type="curve" smooth="yes"/>
      <point x="257" y="590"/>
      <point x="273" y="610"/>
      <point x="295" y="610" type="curve" smooth="yes"/>
      <point x="346" y="610"/>
      <point x="367" y="523"/>
      <point x="432" y="523" type="curve" smooth="yes"/>
      <point x="484" y="523"/>
      <point x="519" y="557"/>
      <point x="519" y="611" type="curve" smooth="yes"/>
      <point x="519" y="664"/>
      <point x="479" y="709"/>
      <point x="405" y="709" type="curve" smooth="yes"/>
      <point x="250" y="709"/>
      <point x="153" y="623"/>
      <point x="143" y="478" type="curve" smooth="yes"/>
      <point x="140" y="440" type="line"/>
      <point x="101" y="440" type="line" smooth="yes"/>
      <point x="66" y="440"/>
      <point x="43" y="421"/>
    </contour>
  </outline>
</glyph>
<glyph name="k" format="2">
  <advance width="609"/>
  <unicode hex="006B"/>
  <outline>
    <contour>
      <point x="262" y="338" type="line"/>
      <point x="302" y="438"/>
      <point x="407" y="493"/>
      <point x="499" y="493" type="curve" smooth="yes"/>
      <point x="595" y="493"/>
      <point x="659" y="447"/>
      <point x="659" y="355" type="curve" smooth="yes"/>
      <point x="659" y="249"/>
      <point x="520" y="167"/>
      <point x="223" y="130" type="curve"/>
      <point x="221" y="202" type="line"/>
      <point x="393" y="218"/>
      <point x="455" y="284"/>
      <point x="455" y="354" type="curve" smooth="yes"/>
      <point x="455" y="379"/>
      <point x="447" y="393"/>
      <point x="425" y="393" type="curve" smooth="yes"/>
      <point x="377" y="393"/>
      <point x="314" y="338"/>
      <point x="272" y="184" type="curve" smooth="yes"/>
      <point x="263" y="154"/>
      <point x="256" y="134"/>
      <point x="256" y="119" type="curve" smooth="yes"/>
      <point x="256" y="85"/>
      <point x="261" y="70"/>
      <point x="261" y="50" type="curve" smooth="yes"/>
      <point x="261" y="11"/>
      <point x="201" y="-15"/>
      <point x="133" y="-15" type="curve" smooth="yes"/>
      <point x="81" y="-15"/>
      <point x="48" y="11"/>
      <point x="48" y="57" type="curve" smooth="yes"/>
      <point x="48" y="75"/>
      <point x="51" y="96"/>
      <point x="61" y="124" type="curve" smooth="yes"/>
      <point x="184" y="499" type="line" smooth="yes"/>
      <point x="236" y="656"/>
      <point x="347" y="734"/>
      <point x="534" y="734" type="curve" smooth="yes"/>
      <point x="621" y="734"/>
      <point x="663" y="681"/>
      <point x="663" y="624" type="curve" smooth="yes"/>
      <point x="663" y="583"/>
      <point x="628" y="547"/>
      <point x="562" y="547" type="curve" smooth="yes"/>
      <point x="492" y="547"/>
      <point x="445" y="635"/>
      <point x="393" y="635" type="curve" smooth="yes"/>
      <point x="390" y="635"/>
      <point x="388" y="626"/>
      <point x="369" y="554" type="curve" smooth="yes"/>
      <point x="326" y="385"/>
      <point x="292" y="337"/>
      <point x="291" y="283" type="curve"/>
    </contour>
    <contour>
      <point x="297" y="152" type="curve"/>
      <point x="409" y="179" type="line"/>
      <point x="426" y="171"/>
      <point x="439" y="145"/>
      <point x="457" y="145" type="curve" smooth="yes"/>
      <point x="504" y="145"/>
      <point x="521" y="190"/>
      <point x="555" y="190" type="curve" smooth="yes"/>
      <point x="590" y="190"/>
      <point x="611" y="171"/>
      <point x="611" y="134" type="curve" smooth="yes"/>
      <point x="611" y="48"/>
      <point x="527" y="-15"/>
      <point x="410" y="-15" type="curve" smooth="yes"/>
      <point x="356" y="-15"/>
      <point x="307" y="23"/>
    </contour>
  </outline>
</glyph>
<glyph name="r" format="2">
  <advance width="524"/>
  <unicode hex="0072"/>
  <outline>
    <contour>
      <point x="45" y="305" type="curve" smooth="yes"/>
      <point x="52" y="305"/>
      <point x="65" y="307"/>
      <point x="74" y="316" type="curve" smooth="yes"/>
      <point x="84" y="327"/>
      <point x="94" y="331"/>
      <point x="105" y="331" type="curve" smooth="yes"/>
      <point x="114" y="331"/>
      <point x="119" y="322"/>
      <point x="119" y="310" type="curve" smooth="yes"/>
      <point x="119" y="295"/>
      <point x="116" y="281"/>
      <point x="109" y="267" type="curve" smooth="yes"/>
      <point x="58" y="153" type="line" smooth="yes"/>
      <point x="41" y="114"/>
      <point x="35" y="89"/>
      <point x="35" y="57" type="curve" smooth="yes"/>
      <point x="35" y="19"/>
      <point x="53" y="-13"/>
      <point x="105" y="-13" type="curve" smooth="yes"/>
      <point x="211" y="-13"/>
      <point x="282" y="22"/>
      <point x="282" y="70" type="curve" smooth="yes"/>
      <point x="282" y="92"/>
      <point x="262" y="106"/>
      <point x="262" y="136" type="curve" smooth="yes"/>
      <point x="262" y="168"/>
      <point x="267" y="199"/>
      <point x="288" y="252" type="curve" smooth="yes"/>
      <point x="308" y="304"/>
      <point x="324" y="328"/>
      <point x="347" y="328" type="curve" smooth="yes"/>
      <point x="383" y="328"/>
      <point x="367" y="236"/>
      <point x="431" y="236" type="curve" smooth="yes"/>
      <point x="487" y="236"/>
      <point x="547" y="280"/>
      <point x="547" y="371" type="curve" smooth="yes"/>
      <point x="547" y="439"/>
      <point x="511" y="481"/>
      <point x="454" y="481" type="curve" smooth="yes"/>
      <point x="363" y="481"/>
      <point x="280" y="368"/>
      <point x="234" y="199" type="curve"/>
      <point x="247" y="192" type="line"/>
      <point x="252" y="250"/>
      <point x="303" y="355"/>
      <point x="303" y="416" type="curve" smooth="yes"/>
      <point x="303" y="456"/>
      <point x="279" y="484"/>
      <point x="237" y="484" type="curve" smooth="yes"/>
      <point x="123" y="484"/>
      <point x="25" y="409"/>
      <point x="18" y="339" type="curve" smooth="yes"/>
      <point x="18" y="317"/>
      <point x="30" y="305"/>
    </contour>
  </outline>
</glyph>
<glyph name="s" format="2">
  <advance width="512"/>
  <unicode hex="0073"/>
  <outline>
    <contour>
      <point x="234" y="69" type="curve" smooth="yes"/>
      <point x="202" y="69"/>
      <point x="176" y="82"/>
      <point x="150" y="126" type="curve" smooth="yes"/>
      <point x="127" y="166"/>
      <point x="102" y="190"/>
      <point x="64" y="190" type="curve" smooth="yes"/>
      <point x="29" y="190"/>
      <point x="7" y="163"/>
      <point x="6" y="116" type="curve" smooth="yes"/>
      <point x="5" y="44"/>
      <point x="64" y="-13"/>
      <point x="210" y="-13" type="curve" smooth="yes"/>
      <point x="367" y="-13"/>
      <point x="461" y="52"/>
      <point x="458" y="148" type="curve" smooth="yes"/>
      <point x="456" y="209"/>
      <point x="430" y="243"/>
      <point x="339" y="291" type="curve" smooth="yes"/>
      <point x="275" y="326"/>
      <point x="257" y="349"/>
      <point x="256" y="371" type="curve" smooth="yes"/>
      <point x="256" y="393"/>
      <point x="269" y="402"/>
      <point x="291" y="402" type="curve" smooth="yes"/>
      <point x="326" y="402"/>
      <point x="352" y="378"/>
      <point x="378" y="336" type="curve" smooth="yes"/>
      <point x="402" y="291"/>
      <point x="423" y="277"/>
      <point x="453" y="277" type="curve" smooth="yes"/>
      <point x="489" y="277"/>
      <point x="510" y="302"/>
      <point x="510" y="354" type="curve" smooth="yes"/>
      <point x="510" y="433"/>
      <point x="451" y="485"/>
      <point x="325" y="485" type="curve" smooth="yes"/>
      <point x="153" y="485"/>
      <point x="64" y="405"/>
      <point x="66" y="310" type="curve" smooth="yes"/>
      <point x="69" y="243"/>
      <point x="103" y="207"/>
      <point x="185" y="170" type="curve" smooth="yes"/>
      <point x="253" y="140"/>
      <point x="267" y="125"/>
      <point x="268" y="100" type="curve" smooth="yes"/>
      <point x="268" y="83"/>
      <point x="256" y="69"/>
    </contour>
  </outline>
</glyph>
<glyph name="t" format="2">
  <advance width="419"/>
  <unicode hex="0074"/>
  <outline>
    <contour>
      <point x="82" y="357" type="line" smooth="yes"/>
      <point x="93" y="351"/>
      <point x="97" y="341"/>
      <point x="97" y="328" type="curve" smooth="yes"/>
      <point x="97" y="313"/>
      <point x="95" y="297"/>
      <point x="88" y="278" type="curve" smooth="yes"/>
      <point x="63" y="210" type="line" smooth="yes"/>
      <point x="38" y="146"/>
      <point x="34" y="118"/>
      <point x="34" y="89" type="curve" smooth="yes"/>
      <point x="34" y="23"/>
      <point x="74" y="-13"/>
      <point x="149" y="-13" type="curve" smooth="yes"/>
      <point x="300" y="-13"/>
      <point x="386" y="64"/>
      <point x="390" y="137" type="curve" smooth="yes"/>
      <point x="390" y="156"/>
      <point x="381" y="168"/>
      <point x="365" y="168" type="curve" smooth="yes"/>
      <point x="353" y="168"/>
      <point x="346" y="164"/>
      <point x="330" y="151" type="curve" smooth="yes"/>
      <point x="310" y="131"/>
      <point x="298" y="124"/>
      <point x="279" y="124" type="curve" smooth="yes"/>
      <point x="256" y="124"/>
      <point x="247" y="136"/>
      <point x="247" y="157" type="curve" smooth="yes"/>
      <point x="247" y="170"/>
      <point x="250" y="186"/>
      <point x="258" y="213" type="curve" smooth="yes"/>
      <point x="334" y="462" type="line" smooth="yes"/>
      <point x="344" y="493"/>
      <point x="346" y="520"/>
      <point x="346" y="538" type="curve" smooth="yes"/>
      <point x="346" y="559"/>
      <point x="332" y="577"/>
      <point x="311" y="577" type="curve" smooth="yes"/>
      <point x="284" y="577"/>
      <point x="260" y="572"/>
      <point x="248" y="557" type="curve" smooth="yes"/>
      <point x="187" y="496" type="line" smooth="yes"/>
      <point x="162" y="466"/>
      <point x="141" y="460"/>
      <point x="109" y="460" type="curve" smooth="yes"/>
      <point x="96" y="460" type="line" smooth="yes"/>
      <point x="60" y="460"/>
      <point x="37" y="442"/>
      <point x="37" y="413" type="curve" smooth="yes"/>
      <point x="37" y="393"/>
      <point x="46" y="376"/>
      <point x="65" y="366" type="curve" smooth="yes"/>
    </contour>
    <contour>
      <point x="257" y="352" type="line"/>
      <point x="357" y="352" type="line" smooth="yes"/>
      <point x="409" y="352"/>
      <point x="441" y="379"/>
      <point x="441" y="421" type="curve" smooth="yes"/>
      <point x="441" y="443"/>
      <point x="431" y="455"/>
      <point x="410" y="455" type="curve" smooth="yes"/>
      <point x="291" y="455" type="line"/>
    </contour>
  </outline>
</glyph>
<glyph name="b.alt" format="2">
  <advance width="604"/>
  <outline>
    <contour>
      <point x="341" y="360" type="curve" smooth="yes"/>
      <point x="355" y="360"/>
      <point x="369" y="352"/>
      <point x="369" y="316" type="curve" smooth="yes"/>
      <point x="369" y="183"/>
      <point x="301" y="85"/>
      <point x="258" y="85" type="curve" smooth="yes"/>
      <point x="241" y="85"/>
      <point x="232" y="100"/>
      <point x="232" y="125" type="curve" smooth="yes"/>
      <point x="232" y="234"/>
      <point x="298" y="360"/>
    </contour>
    <contour>
      <point x="145" y="517" type="curve" smooth="yes"/>
      <point x="33" y="163" type="line" smooth="yes"/>
      <point x="13" y="104"/>
      <point x="5" y="82"/>
      <point x="5" y="58" type="curve" smooth="yes"/>
      <point x="5" y="15"/>
      <point x="28" y="-13"/>
      <point x="55" y="-13" type="curve" smooth="yes"/>
      <point x="84" y="-13"/>
      <point x="101" y="-5"/>
      <point x="128" y="26" type="curve" smooth="yes"/>
      <point x="195" y="88" type="line"/>
      <point x="134" y="126" type="line"/>
      <point x="134" y="25"/>
      <point x="197" y="-14"/>
      <point x="282" y="-14" type="curve" smooth="yes"/>
      <point x="440" y="-14"/>
      <point x="587" y="125"/>
      <point x="587" y="324" type="curve" smooth="yes"/>
      <point x="587" y="436"/>
      <point x="535" y="479"/>
      <point x="456" y="479" type="curve" smooth="yes"/>
      <point x="369" y="479"/>
      <point x="305" y="429"/>
      <point x="266" y="343" type="curve"/>
      <point x="283" y="337" type="line"/>
      <point x="333" y="516" type="line" smooth="yes"/>
      <point x="345" y="556"/>
      <point x="353" y="592"/>
      <point x="353" y="623" type="curve" smooth="yes"/>
      <point x="353" y="665"/>
      <point x="330" y="702"/>
      <point x="266" y="702" type="curve" smooth="yes"/>
      <point x="142" y="702"/>
      <point x="70" y="640"/>
      <point x="65" y="586" type="curve" smooth="yes"/>
      <point x="65" y="558"/>
      <point x="82" y="545"/>
      <point x="99" y="544" type="curve" smooth="yes"/>
      <point x="109" y="544"/>
      <point x="115" y="545"/>
      <point x="122" y="551" type="curve" smooth="yes"/>
      <point x="129" y="559"/>
      <point x="136" y="562"/>
      <point x="143" y="562" type="curve" smooth="yes"/>
      <point x="148" y="562"/>
      <point x="152" y="557"/>
      <point x="152" y="551" type="curve" smooth="yes"/>
      <point x="152" y="543"/>
      <point x="151" y="536"/>
    </contour>
  </outline>
</glyph>
<glyph name="h.alt" format="2">
  <advance width="619"/>
  <outline>
    <contour>
      <point x="340" y="512" type="curve" smooth="yes"/>
      <point x="315" y="427"/>
      <point x="296" y="370"/>
      <point x="288" y="336" type="curve"/>
      <point x="274" y="339" type="line"/>
      <point x="335" y="438"/>
      <point x="423" y="476"/>
      <point x="497" y="476" type="curve" smooth="yes"/>
      <point x="550" y="476"/>
      <point x="582" y="442"/>
      <point x="582" y="400" type="curve" smooth="yes"/>
      <point x="582" y="368"/>
      <point x="577" y="338"/>
      <point x="562" y="303" type="curve" smooth="yes"/>
      <point x="518" y="195" type="line" smooth="yes"/>
      <point x="513" y="183"/>
      <point x="512" y="176"/>
      <point x="510" y="163" type="curve" smooth="yes"/>
      <point x="510" y="155"/>
      <point x="509" y="142"/>
      <point x="521" y="142" type="curve" smooth="yes"/>
      <point x="526" y="142"/>
      <point x="528" y="142"/>
      <point x="536" y="147" type="curve" smooth="yes"/>
      <point x="558" y="159"/>
      <point x="563" y="168"/>
      <point x="577" y="168" type="curve" smooth="yes"/>
      <point x="595" y="168"/>
      <point x="603" y="153"/>
      <point x="602" y="138" type="curve" smooth="yes"/>
      <point x="598" y="59"/>
      <point x="519" y="-14"/>
      <point x="399" y="-14" type="curve" smooth="yes"/>
      <point x="333" y="-14"/>
      <point x="294" y="12"/>
      <point x="296" y="79" type="curve" smooth="yes"/>
      <point x="298" y="103"/>
      <point x="305" y="128"/>
      <point x="314" y="152" type="curve" smooth="yes"/>
      <point x="344" y="238" type="line" smooth="yes"/>
      <point x="350" y="255"/>
      <point x="355" y="277"/>
      <point x="355" y="288" type="curve" smooth="yes"/>
      <point x="355" y="301"/>
      <point x="347" y="310"/>
      <point x="338" y="310" type="curve" smooth="yes"/>
      <point x="291" y="310"/>
      <point x="258" y="258"/>
      <point x="235" y="176" type="curve" smooth="yes"/>
      <point x="231" y="160"/>
      <point x="228" y="142"/>
      <point x="228" y="130" type="curve" smooth="yes"/>
      <point x="228" y="104"/>
      <point x="238" y="90"/>
      <point x="238" y="67" type="curve" smooth="yes"/>
      <point x="238" y="18"/>
      <point x="166" y="-14"/>
      <point x="84" y="-14" type="curve" smooth="yes"/>
      <point x="30" y="-14"/>
      <point x="4" y="6"/>
      <point x="4" y="51" type="curve" smooth="yes"/>
      <point x="4" y="66"/>
      <point x="3" y="87"/>
      <point x="17" y="127" type="curve" smooth="yes"/>
      <point x="147" y="513" type="line" smooth="yes"/>
      <point x="152" y="527"/>
      <point x="157" y="539"/>
      <point x="157" y="547" type="curve" smooth="yes"/>
      <point x="157" y="554"/>
      <point x="153" y="559"/>
      <point x="146" y="559" type="curve" smooth="yes"/>
      <point x="140" y="559"/>
      <point x="134" y="555"/>
      <point x="126" y="547" type="curve" smooth="yes"/>
      <point x="120" y="542"/>
      <point x="114" y="541"/>
      <point x="103" y="541" type="curve" smooth="yes"/>
      <point x="86" y="541"/>
      <point x="69" y="555"/>
      <point x="69" y="583" type="curve" smooth="yes"/>
      <point x="74" y="637"/>
      <point x="145" y="699"/>
      <point x="270" y="699" type="curve" smooth="yes"/>
      <point x="334" y="699"/>
      <point x="358" y="662"/>
      <point x="358" y="619" type="curve" smooth="yes"/>
      <point x="358" y="588"/>
      <point x="353" y="552"/>
    </contour>
  </outline>
</glyph>
<glyph name="jdotless" format="2">
  <advance width="312"/>
  <outline>
    <contour>
      <point x="337" y="201" type="curve" smooth="yes"/>
      <point x="246" y="-61" type="line" smooth="yes"/>
      <point x="207" y="-178"/>
      <point x="126" y="-265"/>
      <point x="9" y="-265" type="curve" smooth="yes"/>
      <point x="-97" y="-265"/>
      <point x="-154" y="-212"/>
      <point x="-154" y="-150" type="curve" smooth="yes"/>
      <point x="-154" y="-101"/>
      <point x="-123" y="-72"/>
      <point x="-64" y="-72" type="curve" smooth="yes"/>
      <point x="-15" y="-72"/>
      <point x="27" y="-107"/>
      <point x="72" y="-107" type="curve" smooth="yes"/>
      <point x="129" y="-107"/>
      <point x="165" y="-86"/>
      <point x="165" y="-38" type="curve" smooth="yes"/>
      <point x="165" y="-5"/>
      <point x="92" y="31"/>
      <point x="123" y="133" type="curve" smooth="yes"/>
      <point x="162" y="217" type="line" smooth="yes"/>
      <point x="176" y="257"/>
      <point x="177" y="274"/>
      <point x="178" y="299" type="curve" smooth="yes"/>
      <point x="178" y="322"/>
      <point x="165" y="340"/>
      <point x="152" y="340" type="curve" smooth="yes"/>
      <point x="145" y="340"/>
      <point x="139" y="337"/>
      <point x="137" y="330" type="curve" smooth="yes"/>
      <point x="131" y="324"/>
      <point x="120" y="330"/>
      <point x="112" y="330" type="curve" smooth="yes"/>
      <point x="93" y="330"/>
      <point x="82" y="340"/>
      <point x="81" y="375" type="curve" smooth="yes"/>
      <point x="80" y="440"/>
      <point x="166" y="493"/>
      <point x="300" y="493" type="curve" smooth="yes"/>
      <point x="350" y="493"/>
      <point x="374" y="461"/>
      <point x="373" y="414" type="curve" smooth="yes"/>
      <point x="371" y="353"/>
      <point x="359" y="270"/>
    </contour>
  </outline>
</glyph>
